<svg width="560" height="138" viewBox="0 0 560 138" xmlns="http://www.w3.org/2000/svg" role="img" aria-label="RTX 4090 每日市场均价走势 2022-10-11 至 2026-09-09">
<defs>
<linearGradient id="areaGrad" x1="0" y1="0" x2="0" y2="1">
<stop offset="0%" stop-color="#3b82f6" stop-opacity="0.32"/>
<stop offset="100%" stop-color="#3b82f6" stop-opacity="0.02"/>
</linearGradient>
<linearGradient id="lineGrad" x1="0" y1="0" x2="1" y2="0">
<stop offset="0%" stop-color="#22c55e"/>
<stop offset="55%" stop-color="#f59e0b"/>
<stop offset="100%" stop-color="#ef4444"/>
</linearGradient>
</defs>
<line x1="6" y1="83.0" x2="554" y2="83.0" stroke="#1f2a41" stroke-width="1" stroke-dasharray="3 4"/>
<line x1="6" y1="62.0" x2="554" y2="62.0" stroke="#1f2a41" stroke-width="1" stroke-dasharray="3 4"/>
<line x1="6" y1="41.0" x2="554" y2="41.0" stroke="#1f2a41" stroke-width="1" stroke-dasharray="3 4"/>
<path d="M6.0,104 6.0,96.9 6.4,94.8 6.8,97.0 7.2,95.9 7.5,57.9 7.9,66.7 8.3,70.0 8.7,68.2 9.1,69.2 9.5,77.9 9.8,79.2 10.2,71.2 10.6,69.9 11.0,71.7 11.4,71.4 11.8,71.6 12.1,72.6 12.5,74.1 12.9,74.1 13.3,74.0 13.7,74.1 14.1,76.2 14.4,73.9 14.8,77.3 15.2,76.1 15.6,75.8 16.0,73.9 16.4,73.9 16.7,73.9 17.1,73.4 17.5,74.1 17.9,76.4 18.3,76.8 18.7,73.9 19.0,73.7 19.4,75.0 19.8,79.2 20.2,76.3 20.6,76.5 21.0,74.9 21.3,74.7 21.7,76.4 22.1,75.7 22.5,71.0 22.9,74.3 23.3,69.8 23.6,65.6 24.0,62.8 24.4,62.4 24.8,66.5 25.2,64.3 25.6,62.9 25.9,66.7 26.3,68.8 26.7,67.7 27.1,69.3 27.5,71.3 27.9,72.9 28.2,75.4 28.6,74.1 29.0,74.7 29.4,74.8 29.8,74.2 30.2,76.5 30.5,75.2 30.9,73.8 31.3,77.9 31.7,75.5 32.1,74.9 32.5,79.9 32.8,80.8 33.2,76.4 33.6,77.9 34.0,77.3 34.4,77.4 34.8,76.8 35.1,77.3 35.5,77.8 35.9,79.6 36.3,76.4 36.7,75.8 37.1,76.3 37.4,76.8 37.8,77.2 38.2,76.8 38.6,77.5 39.0,78.1 39.4,76.5 39.7,77.7 40.1,80.6 40.5,81.4 40.9,78.2 41.3,81.4 41.7,79.9 42.0,83.8 42.4,84.0 42.8,80.8 43.2,82.6 43.6,82.3 44.0,83.6 44.3,84.8 44.7,83.7 45.1,83.3 45.5,83.4 45.9,84.6 46.3,86.1 46.6,86.6 47.0,87.8 47.4,88.0 47.8,87.5 48.2,87.4 48.6,87.3 49.0,88.9 49.3,88.8 49.7,89.2 50.1,89.5 50.5,90.2 50.9,89.2 51.3,90.9 51.6,90.9 52.0,89.7 52.4,89.7 52.8,90.6 53.2,88.4 53.6,88.3 53.9,88.7 54.3,88.5 54.7,89.0 55.1,89.6 55.5,88.9 55.9,88.7 56.2,87.8 56.6,87.9 57.0,88.1 57.4,89.0 57.8,88.9 58.2,91.2 58.5,89.5 58.9,88.3 59.3,88.6 59.7,89.7 60.1,90.6 60.5,90.5 60.8,90.8 61.2,90.7 61.6,89.9 62.0,91.3 62.4,90.2 62.8,90.0 63.1,91.4 63.5,91.3 63.9,90.4 64.3,90.5 64.7,90.8 65.1,90.4 65.4,90.6 65.8,90.8 66.2,90.9 66.6,90.9 67.0,90.8 67.4,91.5 67.7,90.9 68.1,91.0 68.5,91.2 68.9,91.5 69.3,91.6 69.7,90.8 70.0,91.2 70.4,90.4 70.8,91.3 71.2,91.1 71.6,91.7 72.0,91.2 72.3,91.3 72.7,91.7 73.1,91.6 73.5,91.5 73.9,91.8 74.3,91.8 74.6,91.8 75.0,91.4 75.4,90.7 75.8,91.8 76.2,92.0 76.6,92.3 76.9,92.5 77.3,92.4 77.7,92.5 78.1,92.5 78.5,92.2 78.9,92.7 79.2,92.0 79.6,92.7 80.0,92.8 80.4,93.2 80.8,93.1 81.2,92.3 81.5,92.0 81.9,92.0 82.3,92.2 82.7,93.1 83.1,93.1 83.5,91.9 83.8,91.8 84.2,91.8 84.6,93.3 85.0,93.6 85.4,93.6 85.8,93.4 86.1,93.3 86.5,92.4 86.9,92.5 87.3,92.1 87.7,92.8 88.1,93.1 88.4,93.1 88.8,92.5 89.2,92.9 89.6,93.2 90.0,92.9 90.4,92.8 90.8,93.4 91.1,92.1 91.5,92.4 91.9,92.4 92.3,93.0 92.7,92.6 93.1,92.6 93.4,92.6 93.8,92.6 94.2,92.5 94.6,92.6 95.0,92.4 95.4,92.4 95.7,92.3 96.1,92.3 96.5,92.4 96.9,92.5 97.3,92.8 97.7,93.0 98.0,93.0 98.4,92.9 98.8,92.6 99.2,92.8 99.6,93.3 100.0,93.4 100.3,93.5 100.7,92.9 101.1,93.1 101.5,93.1 101.9,93.0 102.3,93.2 102.6,92.6 103.0,93.5 103.4,93.7 103.8,93.7 104.2,93.4 104.6,92.7 104.9,93.9 105.3,93.7 105.7,93.8 106.1,93.9 106.5,94.0 106.9,94.1 107.2,94.0 107.6,94.2 108.0,94.4 108.4,94.3 108.8,94.1 109.2,94.4 109.5,94.4 109.9,94.6 110.3,94.5 110.7,94.3 111.1,93.9 111.5,93.8 111.8,93.4 112.2,93.4 112.6,93.5 113.0,93.1 113.4,93.2 113.8,93.1 114.1,94.0 114.5,92.9 114.9,93.8 115.3,94.0 115.7,94.1 116.1,94.1 116.4,94.2 116.8,94.1 117.2,94.0 117.6,93.8 118.0,93.1 118.4,93.3 118.7,93.1 119.1,93.2 119.5,92.9 119.9,92.5 120.3,92.1 120.7,92.1 121.0,91.9 121.4,91.9 121.8,92.1 122.2,92.3 122.6,92.9 123.0,92.6 123.3,91.9 123.7,91.5 124.1,91.9 124.5,91.8 124.9,92.0 125.3,92.0 125.6,92.1 126.0,92.0 126.4,92.2 126.8,92.2 127.2,91.8 127.6,91.8 127.9,91.7 128.3,91.7 128.7,91.7 129.1,91.5 129.5,91.2 129.9,91.6 130.2,91.7 130.6,91.7 131.0,91.7 131.4,91.7 131.8,92.4 132.2,91.9 132.6,91.6 132.9,91.5 133.3,91.4 133.7,91.7 134.1,91.6 134.5,91.5 134.9,91.5 135.2,91.1 135.6,91.0 136.0,91.2 136.4,91.3 136.8,91.7 137.2,91.4 137.5,91.4 137.9,91.3 138.3,91.5 138.7,91.3 139.1,91.5 139.5,91.2 139.8,91.3 140.2,91.3 140.6,91.3 141.0,91.5 141.4,91.6 141.8,91.8 142.1,91.9 142.5,91.6 142.9,91.8 143.3,91.6 143.7,91.7 144.1,91.6 144.4,91.7 144.8,91.7 145.2,91.7 145.6,91.7 146.0,91.6 146.4,91.5 146.7,91.5 147.1,91.4 147.5,91.6 147.9,91.6 148.3,91.6 148.7,90.7 149.0,90.3 149.4,90.1 149.8,90.1 150.2,89.6 150.6,89.7 151.0,90.0 151.3,89.2 151.7,89.1 152.1,89.5 152.5,89.3 152.9,89.1 153.3,89.0 153.6,88.1 154.0,87.7 154.4,87.2 154.8,86.1 155.2,85.6 155.6,86.0 155.9,87.0 156.3,85.3 156.7,85.5 157.1,83.8 157.5,82.7 157.9,82.6 158.2,82.1 158.6,81.4 159.0,81.6 159.4,81.8 159.8,81.4 160.2,81.3 160.5,81.0 160.9,80.7 161.3,79.2 161.7,79.2 162.1,80.2 162.5,81.3 162.8,81.1 163.2,80.2 163.6,79.9 164.0,80.3 164.4,80.8 164.8,80.4 165.1,80.6 165.5,80.7 165.9,81.3 166.3,81.1 166.7,81.0 167.1,81.8 167.4,81.8 167.8,82.5 168.2,81.9 168.6,82.4 169.0,82.1 169.4,81.4 169.7,82.0 170.1,82.5 170.5,82.6 170.9,81.8 171.3,81.7 171.7,81.8 172.0,82.0 172.4,82.2 172.8,81.8 173.2,81.8 173.6,81.1 174.0,81.3 174.3,81.2 174.7,81.3 175.1,81.5 175.5,82.0 175.9,82.5 176.3,82.1 176.7,82.4 177.0,82.4 177.4,83.0 177.8,83.0 178.2,83.5 178.6,82.5 179.0,82.8 179.3,82.8 179.7,82.8 180.1,82.8 180.5,82.9 180.9,82.9 181.3,82.6 181.6,82.7 182.0,82.5 182.4,82.8 182.8,82.7 183.2,82.4 183.6,82.6 183.9,82.8 184.3,83.2 184.7,81.9 185.1,82.0 185.5,83.2 185.9,83.5 186.2,83.5 186.6,83.8 187.0,83.8 187.4,83.8 187.8,84.0 188.2,84.1 188.5,84.2 188.9,84.4 189.3,83.9 189.7,83.8 190.1,84.0 190.5,83.9 190.8,83.9 191.2,84.1 191.6,84.2 192.0,84.3 192.4,84.9 192.8,84.7 193.1,84.6 193.5,84.8 193.9,85.0 194.3,85.0 194.7,84.9 195.1,84.8 195.4,84.7 195.8,84.7 196.2,85.0 196.6,85.1 197.0,84.9 197.4,84.3 197.7,84.8 198.1,84.5 198.5,84.8 198.9,85.0 199.3,84.8 199.7,84.7 200.0,85.1 200.4,85.1 200.8,84.6 201.2,84.4 201.6,84.4 202.0,84.5 202.3,84.5 202.7,85.0 203.1,84.9 203.5,84.8 203.9,84.8 204.3,84.6 204.6,84.7 205.0,84.8 205.4,84.9 205.8,85.5 206.2,85.3 206.6,85.0 206.9,85.2 207.3,85.5 207.7,85.7 208.1,86.0 208.5,86.2 208.9,85.8 209.2,85.7 209.6,85.9 210.0,86.2 210.4,86.1 210.8,86.4 211.2,86.4 211.5,86.2 211.9,85.9 212.3,85.7 212.7,86.2 213.1,86.4 213.5,86.7 213.8,86.7 214.2,86.5 214.6,86.9 215.0,87.0 215.4,86.6 215.8,87.0 216.1,87.4 216.5,87.7 216.9,87.8 217.3,87.9 217.7,87.9 218.1,87.6 218.5,87.9 218.8,88.0 219.2,88.3 219.6,88.2 220.0,88.2 220.4,88.3 220.8,88.3 221.1,88.4 221.5,88.6 221.9,88.6 222.3,88.6 222.7,88.6 223.1,88.7 223.4,88.5 223.8,88.6 224.2,88.6 224.6,88.8 225.0,88.7 225.4,88.8 225.7,88.8 226.1,88.7 226.5,88.8 226.9,88.7 227.3,88.7 227.7,88.7 228.0,88.7 228.4,88.8 228.8,88.9 229.2,88.9 229.6,89.0 230.0,89.1 230.3,89.1 230.7,89.1 231.1,89.2 231.5,89.2 231.9,89.4 232.3,89.5 232.6,89.5 233.0,89.7 233.4,89.5 233.8,89.1 234.2,89.4 234.6,89.3 234.9,89.4 235.3,89.3 235.7,89.3 236.1,89.4 236.5,89.0 236.9,88.9 237.2,89.0 237.6,89.0 238.0,89.1 238.4,89.3 238.8,89.1 239.2,89.1 239.5,89.2 239.9,89.2 240.3,89.0 240.7,89.2 241.1,89.2 241.5,89.1 241.8,89.1 242.2,88.8 242.6,89.1 243.0,89.1 243.4,89.2 243.8,89.3 244.1,89.3 244.5,89.5 244.9,89.4 245.3,89.2 245.7,89.2 246.1,89.1 246.4,89.0 246.8,89.2 247.2,89.2 247.6,89.4 248.0,89.4 248.4,89.4 248.7,89.3 249.1,89.4 249.5,89.1 249.9,88.7 250.3,89.3 250.7,88.9 251.0,89.0 251.4,88.8 251.8,89.1 252.2,89.4 252.6,89.3 253.0,89.3 253.3,89.2 253.7,89.4 254.1,89.4 254.5,89.7 254.9,89.6 255.3,89.1 255.6,89.9 256.0,89.3 256.4,89.5 256.8,89.8 257.2,90.2 257.6,90.0 257.9,90.1 258.3,90.1 258.7,90.1 259.1,90.0 259.5,90.1 259.9,90.0 260.3,89.9 260.6,89.5 261.0,89.5 261.4,89.7 261.8,89.5 262.2,89.6 262.6,89.7 262.9,89.7 263.3,89.6 263.7,89.6 264.1,89.2 264.5,89.3 264.9,89.3 265.2,89.2 265.6,89.1 266.0,89.2 266.4,89.2 266.8,89.2 267.2,88.9 267.5,89.0 267.9,88.9 268.3,88.8 268.7,88.8 269.1,88.4 269.5,88.6 269.8,88.5 270.2,88.4 270.6,87.8 271.0,87.9 271.4,88.4 271.8,88.4 272.1,88.0 272.5,88.5 272.9,88.0 273.3,87.7 273.7,87.6 274.1,87.6 274.4,87.7 274.8,87.4 275.2,87.4 275.6,87.3 276.0,87.2 276.4,87.0 276.7,86.7 277.1,86.6 277.5,86.7 277.9,86.5 278.3,86.4 278.7,85.5 279.0,86.5 279.4,86.4 279.8,86.0 280.2,86.3 280.6,85.6 281.0,85.5 281.3,85.6 281.7,85.4 282.1,85.2 282.5,85.8 282.9,85.2 283.3,85.6 283.6,84.9 284.0,85.0 284.4,84.6 284.8,84.4 285.2,84.8 285.6,85.1 285.9,84.8 286.3,84.6 286.7,84.7 287.1,85.0 287.5,84.9 287.9,84.9 288.2,84.9 288.6,84.9 289.0,83.2 289.4,83.0 289.8,82.9 290.2,83.4 290.5,84.2 290.9,84.2 291.3,84.1 291.7,84.0 292.1,83.8 292.5,83.9 292.8,83.9 293.2,83.2 293.6,82.9 294.0,83.1 294.4,83.2 294.8,83.0 295.1,83.1 295.5,83.6 295.9,83.8 296.3,82.4 296.7,83.0 297.1,82.6 297.4,83.0 297.8,82.9 298.2,82.8 298.6,82.9 299.0,82.9 299.4,83.3 299.7,83.4 300.1,83.0 300.5,82.5 300.9,82.3 301.3,82.8 301.7,82.5 302.1,82.6 302.4,82.2 302.8,82.1 303.2,82.1 303.6,80.9 304.0,81.2 304.4,80.6 304.7,79.5 305.1,79.4 305.5,79.5 305.9,79.0 306.3,78.8 306.7,78.8 307.0,76.7 307.4,76.5 307.8,78.5 308.2,78.4 308.6,77.4 309.0,77.5 309.3,77.7 309.7,78.8 310.1,77.3 310.5,77.3 310.9,76.9 311.3,76.6 311.6,78.1 312.0,75.4 312.4,76.8 312.8,75.9 313.2,76.5 313.6,76.4 313.9,75.5 314.3,75.3 314.7,75.2 315.1,75.5 315.5,75.3 315.9,74.1 316.2,74.4 316.6,74.4 317.0,74.3 317.4,73.9 317.8,73.8 318.2,73.5 318.5,73.9 318.9,73.8 319.3,73.6 319.7,74.0 320.1,73.4 320.5,74.1 320.8,74.1 321.2,72.8 321.6,72.7 322.0,71.9 322.4,72.8 322.8,72.6 323.1,72.8 323.5,73.2 323.9,73.2 324.3,71.5 324.7,71.2 325.1,71.3 325.4,71.1 325.8,69.7 326.2,71.1 326.6,71.6 327.0,70.7 327.4,69.5 327.7,69.3 328.1,69.7 328.5,69.7 328.9,66.7 329.3,66.5 329.7,59.8 330.0,59.6 330.4,63.9 330.8,63.5 331.2,63.0 331.6,62.5 332.0,62.3 332.3,61.6 332.7,61.7 333.1,61.8 333.5,60.9 333.9,61.5 334.3,61.5 334.6,60.2 335.0,60.6 335.4,59.8 335.8,61.9 336.2,62.0 336.6,62.3 336.9,61.4 337.3,61.7 337.7,61.2 338.1,61.2 338.5,61.3 338.9,61.2 339.2,61.5 339.6,60.7 340.0,61.0 340.4,58.9 340.8,58.9 341.2,60.7 341.5,61.8 341.9,61.5 342.3,61.4 342.7,62.4 343.1,61.7 343.5,61.6 343.9,61.2 344.2,61.0 344.6,61.2 345.0,61.9 345.4,62.5 345.8,62.5 346.2,62.5 346.5,62.5 346.9,61.7 347.3,62.2 347.7,59.2 348.1,59.5 348.5,59.4 348.8,59.2 349.2,59.2 349.6,58.8 350.0,57.0 350.4,56.5 350.8,56.7 351.1,56.6 351.5,56.8 351.9,57.2 352.3,58.2 352.7,58.3 353.1,58.0 353.4,58.9 353.8,59.3 354.2,59.3 354.6,59.2 355.0,61.3 355.4,61.0 355.7,60.9 356.1,61.3 356.5,61.8 356.9,63.2 357.3,63.8 357.7,62.7 358.0,62.8 358.4,65.2 358.8,63.6 359.2,63.8 359.6,63.8 360.0,62.6 360.3,62.3 360.7,62.0 361.1,62.0 361.5,62.0 361.9,62.0 362.3,62.0 362.6,61.9 363.0,62.4 363.4,62.4 363.8,62.5 364.2,62.8 364.6,62.4 364.9,62.4 365.3,62.3 365.7,62.3 366.1,62.4 366.5,62.6 366.9,63.1 367.2,63.2 367.6,63.2 368.0,63.8 368.4,66.6 368.8,65.9 369.2,65.6 369.5,66.5 369.9,66.6 370.3,66.6 370.7,66.6 371.1,66.4 371.5,68.4 371.8,68.5 372.2,68.3 372.6,68.5 373.0,68.5 373.4,68.6 373.8,68.6 374.1,68.6 374.5,67.0 374.9,67.0 375.3,67.0 375.7,67.0 376.1,66.8 376.4,67.3 376.8,67.4 377.2,67.8 377.6,67.9 378.0,68.2 378.4,68.2 378.7,67.9 379.1,69.2 379.5,69.3 379.9,68.8 380.3,68.7 380.7,68.0 381.0,68.0 381.4,68.8 381.8,68.0 382.2,68.1 382.6,67.9 383.0,67.8 383.3,67.8 383.7,68.7 384.1,67.9 384.5,68.4 384.9,68.4 385.3,68.0 385.7,68.6 386.0,70.7 386.4,70.7 386.8,68.6 387.2,68.2 387.6,67.3 388.0,67.5 388.3,67.7 388.7,67.7 389.1,67.7 389.5,67.7 389.9,68.5 390.3,67.8 390.6,67.8 391.0,67.7 391.4,67.7 391.8,68.3 392.2,67.5 392.6,66.9 392.9,69.2 393.3,69.3 393.7,68.3 394.1,68.3 394.5,68.3 394.9,68.3 395.2,68.3 395.6,68.4 396.0,68.4 396.4,68.4 396.8,68.4 397.2,68.4 397.5,68.0 397.9,68.0 398.3,69.4 398.7,68.2 399.1,68.0 399.5,68.3 399.8,67.7 400.2,69.0 400.6,68.2 401.0,68.5 401.4,68.6 401.8,68.3 402.1,68.3 402.5,68.3 402.9,68.6 403.3,68.6 403.7,68.2 404.1,68.3 404.4,68.0 404.8,69.3 405.2,69.2 405.6,68.0 406.0,68.3 406.4,68.4 406.7,67.8 407.1,67.9 407.5,67.9 407.9,67.9 408.3,67.6 408.7,69.5 409.0,69.5 409.4,69.5 409.8,69.5 410.2,69.6 410.6,69.6 411.0,69.5 411.3,69.4 411.7,68.2 412.1,68.2 412.5,68.1 412.9,68.1 413.3,68.1 413.6,68.4 414.0,68.4 414.4,68.4 414.8,68.5 415.2,68.5 415.6,68.4 415.9,68.5 416.3,68.4 416.7,68.3 417.1,68.4 417.5,68.4 417.9,68.5 418.2,68.5 418.6,68.5 419.0,68.7 419.4,66.4 419.8,68.8 420.2,68.9 420.5,69.2 420.9,68.9 421.3,66.6 421.7,66.7 422.1,65.6 422.5,65.5 422.8,65.5 423.2,65.5 423.6,66.9 424.0,66.9 424.4,65.5 424.8,65.3 425.1,65.3 425.5,65.8 425.9,66.0 426.3,66.1 426.7,66.1 427.1,66.1 427.4,66.1 427.8,66.4 428.2,67.2 428.6,67.3 429.0,67.0 429.4,67.0 429.8,68.2 430.1,67.4 430.5,67.2 430.9,67.2 431.3,67.2 431.7,67.1 432.1,67.1 432.4,67.1 432.8,67.1 433.2,67.1 433.6,67.1 434.0,67.1 434.4,67.3 434.7,67.6 435.1,67.6 435.5,67.5 435.9,67.5 436.3,67.5 436.7,67.5 437.0,67.5 437.4,67.5 437.8,67.6 438.2,67.4 438.6,67.4 439.0,67.4 439.3,67.7 439.7,67.7 440.1,67.3 440.5,67.5 440.9,67.5 441.3,67.3 441.6,66.3 442.0,66.4 442.4,67.8 442.8,67.7 443.2,66.3 443.6,66.3 443.9,66.3 444.3,66.3 444.7,66.5 445.1,66.5 445.5,66.7 445.9,66.4 446.2,66.4 446.6,66.4 447.0,66.4 447.4,66.4 447.8,66.4 448.2,66.8 448.5,66.9 448.9,67.0 449.3,67.0 449.7,67.4 450.1,67.4 450.5,67.4 450.8,66.5 451.2,66.4 451.6,65.6 452.0,65.6 452.4,66.5 452.8,67.1 453.1,67.1 453.5,67.1 453.9,67.1 454.3,67.3 454.7,67.0 455.1,67.0 455.4,66.3 455.8,65.6 456.2,66.0 456.6,66.2 457.0,66.3 457.4,66.3 457.7,66.3 458.1,66.3 458.5,66.5 458.9,66.5 459.3,66.5 459.7,66.5 460.0,66.1 460.4,65.3 460.8,65.3 461.2,65.3 461.6,65.5 462.0,65.6 462.3,65.6 462.7,65.3 463.1,65.3 463.5,65.7 463.9,66.4 464.3,66.3 464.6,66.3 465.0,66.4 465.4,66.4 465.8,66.4 466.2,66.6 466.6,67.0 466.9,66.9 467.3,66.9 467.7,67.4 468.1,67.1 468.5,67.2 468.9,66.5 469.2,66.5 469.6,66.5 470.0,66.5 470.4,66.5 470.8,67.3 471.2,67.9 471.6,67.5 471.9,67.2 472.3,67.2 472.7,67.2 473.1,67.2 473.5,70.3 473.9,70.3 474.2,70.3 474.6,69.5 475.0,69.3 475.4,69.2 475.8,69.2 476.2,69.6 476.5,68.7 476.9,68.7 477.3,68.7 477.7,68.7 478.1,68.9 478.5,68.9 478.8,69.7 479.2,69.7 479.6,69.7 480.0,69.7 480.4,69.7 480.8,70.2 481.1,69.7 481.5,69.7 481.9,69.7 482.3,68.9 482.7,68.9 483.1,71.0 483.4,71.0 483.8,71.6 484.2,71.0 484.6,71.6 485.0,71.6 485.4,71.0 485.7,71.0 486.1,71.0 486.5,71.0 486.9,71.0 487.3,71.1 487.7,71.6 488.0,71.6 488.4,71.6 488.8,71.6 489.2,72.2 489.6,72.2 490.0,72.2 490.3,72.3 490.7,72.3 491.1,72.3 491.5,72.3 491.9,72.3 492.3,72.0 492.6,72.3 493.0,72.3 493.4,72.3 493.8,72.3 494.2,72.5 494.6,72.5 494.9,72.5 495.3,71.8 495.7,72.1 496.1,72.5 496.5,72.5 496.9,72.6 497.2,72.7 497.6,72.8 498.0,72.8 498.4,72.8 498.8,72.9 499.2,85.0 499.5,72.4 499.9,72.4 500.3,72.4 500.7,72.4 501.1,71.1 501.5,85.0 501.8,85.0 502.2,72.4 502.6,72.4 503.0,85.0 503.4,85.0 503.8,71.1 504.1,71.1 504.5,71.1 504.9,70.1 505.3,70.1 505.7,70.1 506.1,70.1 506.4,70.1 506.8,70.2 507.2,70.2 507.6,70.4 508.0,70.8 508.4,70.4 508.7,70.4 509.1,70.4 509.5,70.4 509.9,70.4 510.3,71.1 510.7,71.1 511.0,71.0 511.4,70.8 511.8,70.8 512.2,71.0 512.6,71.0 513.0,71.0 513.4,70.8 513.7,70.8 514.1,70.8 514.5,70.8 514.9,70.8 515.3,70.8 515.7,70.9 516.0,70.9 516.4,71.0 516.8,71.0 517.2,71.0 517.6,71.0 518.0,71.0 518.3,71.0 518.7,71.5 519.1,85.0 519.5,85.0 519.9,85.0 520.3,85.0 520.6,85.0 521.0,85.0 521.4,85.0 521.8,85.0 522.2,85.0 522.6,85.0 522.9,85.0 523.3,85.0 523.7,85.0 524.1,85.0 524.5,70.9 524.9,70.9 525.2,71.3 525.6,71.3 526.0,71.3 526.4,71.4 526.8,71.4 527.2,71.5 527.5,71.5 527.9,71.5 528.3,71.5 528.7,71.5 529.1,71.6 529.5,71.6 529.8,71.5 530.2,68.6 530.6,68.6 531.0,68.6 531.4,68.6 531.8,68.6 532.1,68.6 532.5,68.6 532.9,70.7 533.3,70.3 533.7,70.4 534.1,70.5 534.4,71.0 534.8,71.3 535.2,71.3 535.6,85.0 536.0,85.0 536.4,85.0 536.7,85.0 537.1,85.0 537.5,85.0 537.9,85.0 538.3,85.0 538.7,85.0 539.0,85.0 539.4,85.0 539.8,85.0 540.2,85.0 540.6,85.0 541.0,85.0 541.3,85.0 541.7,85.0 542.1,85.0 542.5,85.0 542.9,85.0 543.3,85.0 543.6,85.0 544.0,41.8 544.4,41.8 544.8,41.8 545.2,41.8 545.6,42.2 545.9,42.0 546.3,42.3 546.7,41.1 547.1,41.1 547.5,41.1 547.9,41.1 548.2,41.1 548.6,34.4 549.0,34.4 549.4,34.4 549.8,34.4 550.2,34.4 550.5,34.4 550.9,34.4 551.3,33.7 551.7,33.7 552.1,27.0 552.5,27.0 552.8,27.0 553.2,27.0 553.6,27.0 554.0,27.0 554.0,104 Z" fill="url(#areaGrad)"/>
<polyline points="6.0,96.9 6.4,94.8 6.8,97.0 7.2,95.9 7.5,57.9 7.9,66.7 8.3,70.0 8.7,68.2 9.1,69.2 9.5,77.9 9.8,79.2 10.2,71.2 10.6,69.9 11.0,71.7 11.4,71.4 11.8,71.6 12.1,72.6 12.5,74.1 12.9,74.1 13.3,74.0 13.7,74.1 14.1,76.2 14.4,73.9 14.8,77.3 15.2,76.1 15.6,75.8 16.0,73.9 16.4,73.9 16.7,73.9 17.1,73.4 17.5,74.1 17.9,76.4 18.3,76.8 18.7,73.9 19.0,73.7 19.4,75.0 19.8,79.2 20.2,76.3 20.6,76.5 21.0,74.9 21.3,74.7 21.7,76.4 22.1,75.7 22.5,71.0 22.9,74.3 23.3,69.8 23.6,65.6 24.0,62.8 24.4,62.4 24.8,66.5 25.2,64.3 25.6,62.9 25.9,66.7 26.3,68.8 26.7,67.7 27.1,69.3 27.5,71.3 27.9,72.9 28.2,75.4 28.6,74.1 29.0,74.7 29.4,74.8 29.8,74.2 30.2,76.5 30.5,75.2 30.9,73.8 31.3,77.9 31.7,75.5 32.1,74.9 32.5,79.9 32.8,80.8 33.2,76.4 33.6,77.9 34.0,77.3 34.4,77.4 34.8,76.8 35.1,77.3 35.5,77.8 35.9,79.6 36.3,76.4 36.7,75.8 37.1,76.3 37.4,76.8 37.8,77.2 38.2,76.8 38.6,77.5 39.0,78.1 39.4,76.5 39.7,77.7 40.1,80.6 40.5,81.4 40.9,78.2 41.3,81.4 41.7,79.9 42.0,83.8 42.4,84.0 42.8,80.8 43.2,82.6 43.6,82.3 44.0,83.6 44.3,84.8 44.7,83.7 45.1,83.3 45.5,83.4 45.9,84.6 46.3,86.1 46.6,86.6 47.0,87.8 47.4,88.0 47.8,87.5 48.2,87.4 48.6,87.3 49.0,88.9 49.3,88.8 49.7,89.2 50.1,89.5 50.5,90.2 50.9,89.2 51.3,90.9 51.6,90.9 52.0,89.7 52.4,89.7 52.8,90.6 53.2,88.4 53.6,88.3 53.9,88.7 54.3,88.5 54.7,89.0 55.1,89.6 55.5,88.9 55.9,88.7 56.2,87.8 56.6,87.9 57.0,88.1 57.4,89.0 57.8,88.9 58.2,91.2 58.5,89.5 58.9,88.3 59.3,88.6 59.7,89.7 60.1,90.6 60.5,90.5 60.8,90.8 61.2,90.7 61.6,89.9 62.0,91.3 62.4,90.2 62.8,90.0 63.1,91.4 63.5,91.3 63.9,90.4 64.3,90.5 64.7,90.8 65.1,90.4 65.4,90.6 65.8,90.8 66.2,90.9 66.6,90.9 67.0,90.8 67.4,91.5 67.7,90.9 68.1,91.0 68.5,91.2 68.9,91.5 69.3,91.6 69.7,90.8 70.0,91.2 70.4,90.4 70.8,91.3 71.2,91.1 71.6,91.7 72.0,91.2 72.3,91.3 72.7,91.7 73.1,91.6 73.5,91.5 73.9,91.8 74.3,91.8 74.6,91.8 75.0,91.4 75.4,90.7 75.8,91.8 76.2,92.0 76.6,92.3 76.9,92.5 77.3,92.4 77.7,92.5 78.1,92.5 78.5,92.2 78.9,92.7 79.2,92.0 79.6,92.7 80.0,92.8 80.4,93.2 80.8,93.1 81.2,92.3 81.5,92.0 81.9,92.0 82.3,92.2 82.7,93.1 83.1,93.1 83.5,91.9 83.8,91.8 84.2,91.8 84.6,93.3 85.0,93.6 85.4,93.6 85.8,93.4 86.1,93.3 86.5,92.4 86.9,92.5 87.3,92.1 87.7,92.8 88.1,93.1 88.4,93.1 88.8,92.5 89.2,92.9 89.6,93.2 90.0,92.9 90.4,92.8 90.8,93.4 91.1,92.1 91.5,92.4 91.9,92.4 92.3,93.0 92.7,92.6 93.1,92.6 93.4,92.6 93.8,92.6 94.2,92.5 94.6,92.6 95.0,92.4 95.4,92.4 95.7,92.3 96.1,92.3 96.5,92.4 96.9,92.5 97.3,92.8 97.7,93.0 98.0,93.0 98.4,92.9 98.8,92.6 99.2,92.8 99.6,93.3 100.0,93.4 100.3,93.5 100.7,92.9 101.1,93.1 101.5,93.1 101.9,93.0 102.3,93.2 102.6,92.6 103.0,93.5 103.4,93.7 103.8,93.7 104.2,93.4 104.6,92.7 104.9,93.9 105.3,93.7 105.7,93.8 106.1,93.9 106.5,94.0 106.9,94.1 107.2,94.0 107.6,94.2 108.0,94.4 108.4,94.3 108.8,94.1 109.2,94.4 109.5,94.4 109.9,94.6 110.3,94.5 110.7,94.3 111.1,93.9 111.5,93.8 111.8,93.4 112.2,93.4 112.6,93.5 113.0,93.1 113.4,93.2 113.8,93.1 114.1,94.0 114.5,92.9 114.9,93.8 115.3,94.0 115.7,94.1 116.1,94.1 116.4,94.2 116.8,94.1 117.2,94.0 117.6,93.8 118.0,93.1 118.4,93.3 118.7,93.1 119.1,93.2 119.5,92.9 119.9,92.5 120.3,92.1 120.7,92.1 121.0,91.9 121.4,91.9 121.8,92.1 122.2,92.3 122.6,92.9 123.0,92.6 123.3,91.9 123.7,91.5 124.1,91.9 124.5,91.8 124.9,92.0 125.3,92.0 125.6,92.1 126.0,92.0 126.4,92.2 126.8,92.2 127.2,91.8 127.6,91.8 127.9,91.7 128.3,91.7 128.7,91.7 129.1,91.5 129.5,91.2 129.9,91.6 130.2,91.7 130.6,91.7 131.0,91.7 131.4,91.7 131.8,92.4 132.2,91.9 132.6,91.6 132.9,91.5 133.3,91.4 133.7,91.7 134.1,91.6 134.5,91.5 134.9,91.5 135.2,91.1 135.6,91.0 136.0,91.2 136.4,91.3 136.8,91.7 137.2,91.4 137.5,91.4 137.9,91.3 138.3,91.5 138.7,91.3 139.1,91.5 139.5,91.2 139.8,91.3 140.2,91.3 140.6,91.3 141.0,91.5 141.4,91.6 141.8,91.8 142.1,91.9 142.5,91.6 142.9,91.8 143.3,91.6 143.7,91.7 144.1,91.6 144.4,91.7 144.8,91.7 145.2,91.7 145.6,91.7 146.0,91.6 146.4,91.5 146.7,91.5 147.1,91.4 147.5,91.6 147.9,91.6 148.3,91.6 148.7,90.7 149.0,90.3 149.4,90.1 149.8,90.1 150.2,89.6 150.6,89.7 151.0,90.0 151.3,89.2 151.7,89.1 152.1,89.5 152.5,89.3 152.9,89.1 153.3,89.0 153.6,88.1 154.0,87.7 154.4,87.2 154.8,86.1 155.2,85.6 155.6,86.0 155.9,87.0 156.3,85.3 156.7,85.5 157.1,83.8 157.5,82.7 157.9,82.6 158.2,82.1 158.6,81.4 159.0,81.6 159.4,81.8 159.8,81.4 160.2,81.3 160.5,81.0 160.9,80.7 161.3,79.2 161.7,79.2 162.1,80.2 162.5,81.3 162.8,81.1 163.2,80.2 163.6,79.9 164.0,80.3 164.4,80.8 164.8,80.4 165.1,80.6 165.5,80.7 165.9,81.3 166.3,81.1 166.7,81.0 167.1,81.8 167.4,81.8 167.8,82.5 168.2,81.9 168.6,82.4 169.0,82.1 169.4,81.4 169.7,82.0 170.1,82.5 170.5,82.6 170.9,81.8 171.3,81.7 171.7,81.8 172.0,82.0 172.4,82.2 172.8,81.8 173.2,81.8 173.6,81.1 174.0,81.3 174.3,81.2 174.7,81.3 175.1,81.5 175.5,82.0 175.9,82.5 176.3,82.1 176.7,82.4 177.0,82.4 177.4,83.0 177.8,83.0 178.2,83.5 178.6,82.5 179.0,82.8 179.3,82.8 179.7,82.8 180.1,82.8 180.5,82.9 180.9,82.9 181.3,82.6 181.6,82.7 182.0,82.5 182.4,82.8 182.8,82.7 183.2,82.4 183.6,82.6 183.9,82.8 184.3,83.2 184.7,81.9 185.1,82.0 185.5,83.2 185.9,83.5 186.2,83.5 186.6,83.8 187.0,83.8 187.4,83.8 187.8,84.0 188.2,84.1 188.5,84.2 188.9,84.4 189.3,83.9 189.7,83.8 190.1,84.0 190.5,83.9 190.8,83.9 191.2,84.1 191.6,84.2 192.0,84.3 192.4,84.9 192.8,84.7 193.1,84.6 193.5,84.8 193.9,85.0 194.3,85.0 194.7,84.9 195.1,84.8 195.4,84.7 195.8,84.7 196.2,85.0 196.6,85.1 197.0,84.9 197.4,84.3 197.7,84.8 198.1,84.5 198.5,84.8 198.9,85.0 199.3,84.8 199.7,84.7 200.0,85.1 200.4,85.1 200.8,84.6 201.2,84.4 201.6,84.4 202.0,84.5 202.3,84.5 202.7,85.0 203.1,84.9 203.5,84.8 203.9,84.8 204.3,84.6 204.6,84.7 205.0,84.8 205.4,84.9 205.8,85.5 206.2,85.3 206.6,85.0 206.9,85.2 207.3,85.5 207.7,85.7 208.1,86.0 208.5,86.2 208.9,85.8 209.2,85.7 209.6,85.9 210.0,86.2 210.4,86.1 210.8,86.4 211.2,86.4 211.5,86.2 211.9,85.9 212.3,85.7 212.7,86.2 213.1,86.4 213.5,86.7 213.8,86.7 214.2,86.5 214.6,86.9 215.0,87.0 215.4,86.6 215.8,87.0 216.1,87.4 216.5,87.7 216.9,87.8 217.3,87.9 217.7,87.9 218.1,87.6 218.5,87.9 218.8,88.0 219.2,88.3 219.6,88.2 220.0,88.2 220.4,88.3 220.8,88.3 221.1,88.4 221.5,88.6 221.9,88.6 222.3,88.6 222.7,88.6 223.1,88.7 223.4,88.5 223.8,88.6 224.2,88.6 224.6,88.8 225.0,88.7 225.4,88.8 225.7,88.8 226.1,88.7 226.5,88.8 226.9,88.7 227.3,88.7 227.7,88.7 228.0,88.7 228.4,88.8 228.8,88.9 229.2,88.9 229.6,89.0 230.0,89.1 230.3,89.1 230.7,89.1 231.1,89.2 231.5,89.2 231.9,89.4 232.3,89.5 232.6,89.5 233.0,89.7 233.4,89.5 233.8,89.1 234.2,89.4 234.6,89.3 234.9,89.4 235.3,89.3 235.7,89.3 236.1,89.4 236.5,89.0 236.9,88.9 237.2,89.0 237.6,89.0 238.0,89.1 238.4,89.3 238.8,89.1 239.2,89.1 239.5,89.2 239.9,89.2 240.3,89.0 240.7,89.2 241.1,89.2 241.5,89.1 241.8,89.1 242.2,88.8 242.6,89.1 243.0,89.1 243.4,89.2 243.8,89.3 244.1,89.3 244.5,89.5 244.9,89.4 245.3,89.2 245.7,89.2 246.1,89.1 246.4,89.0 246.8,89.2 247.2,89.2 247.6,89.4 248.0,89.4 248.4,89.4 248.7,89.3 249.1,89.4 249.5,89.1 249.9,88.7 250.3,89.3 250.7,88.9 251.0,89.0 251.4,88.8 251.8,89.1 252.2,89.4 252.6,89.3 253.0,89.3 253.3,89.2 253.7,89.4 254.1,89.4 254.5,89.7 254.9,89.6 255.3,89.1 255.6,89.9 256.0,89.3 256.4,89.5 256.8,89.8 257.2,90.2 257.6,90.0 257.9,90.1 258.3,90.1 258.7,90.1 259.1,90.0 259.5,90.1 259.9,90.0 260.3,89.9 260.6,89.5 261.0,89.5 261.4,89.7 261.8,89.5 262.2,89.6 262.6,89.7 262.9,89.7 263.3,89.6 263.7,89.6 264.1,89.2 264.5,89.3 264.9,89.3 265.2,89.2 265.6,89.1 266.0,89.2 266.4,89.2 266.8,89.2 267.2,88.9 267.5,89.0 267.9,88.9 268.3,88.8 268.7,88.8 269.1,88.4 269.5,88.6 269.8,88.5 270.2,88.4 270.6,87.8 271.0,87.9 271.4,88.4 271.8,88.4 272.1,88.0 272.5,88.5 272.9,88.0 273.3,87.7 273.7,87.6 274.1,87.6 274.4,87.7 274.8,87.4 275.2,87.4 275.6,87.3 276.0,87.2 276.4,87.0 276.7,86.7 277.1,86.6 277.5,86.7 277.9,86.5 278.3,86.4 278.7,85.5 279.0,86.5 279.4,86.4 279.8,86.0 280.2,86.3 280.6,85.6 281.0,85.5 281.3,85.6 281.7,85.4 282.1,85.2 282.5,85.8 282.9,85.2 283.3,85.6 283.6,84.9 284.0,85.0 284.4,84.6 284.8,84.4 285.2,84.8 285.6,85.1 285.9,84.8 286.3,84.6 286.7,84.7 287.1,85.0 287.5,84.9 287.9,84.9 288.2,84.9 288.6,84.9 289.0,83.2 289.4,83.0 289.8,82.9 290.2,83.4 290.5,84.2 290.9,84.2 291.3,84.1 291.7,84.0 292.1,83.8 292.5,83.9 292.8,83.9 293.2,83.2 293.6,82.9 294.0,83.1 294.4,83.2 294.8,83.0 295.1,83.1 295.5,83.6 295.9,83.8 296.3,82.4 296.7,83.0 297.1,82.6 297.4,83.0 297.8,82.9 298.2,82.8 298.6,82.9 299.0,82.9 299.4,83.3 299.7,83.4 300.1,83.0 300.5,82.5 300.9,82.3 301.3,82.8 301.7,82.5 302.1,82.6 302.4,82.2 302.8,82.1 303.2,82.1 303.6,80.9 304.0,81.2 304.4,80.6 304.7,79.5 305.1,79.4 305.5,79.5 305.9,79.0 306.3,78.8 306.7,78.8 307.0,76.7 307.4,76.5 307.8,78.5 308.2,78.4 308.6,77.4 309.0,77.5 309.3,77.7 309.7,78.8 310.1,77.3 310.5,77.3 310.9,76.9 311.3,76.6 311.6,78.1 312.0,75.4 312.4,76.8 312.8,75.9 313.2,76.5 313.6,76.4 313.9,75.5 314.3,75.3 314.7,75.2 315.1,75.5 315.5,75.3 315.9,74.1 316.2,74.4 316.6,74.4 317.0,74.3 317.4,73.9 317.8,73.8 318.2,73.5 318.5,73.9 318.9,73.8 319.3,73.6 319.7,74.0 320.1,73.4 320.5,74.1 320.8,74.1 321.2,72.8 321.6,72.7 322.0,71.9 322.4,72.8 322.8,72.6 323.1,72.8 323.5,73.2 323.9,73.2 324.3,71.5 324.7,71.2 325.1,71.3 325.4,71.1 325.8,69.7 326.2,71.1 326.6,71.6 327.0,70.7 327.4,69.5 327.7,69.3 328.1,69.7 328.5,69.7 328.9,66.7 329.3,66.5 329.7,59.8 330.0,59.6 330.4,63.9 330.8,63.5 331.2,63.0 331.6,62.5 332.0,62.3 332.3,61.6 332.7,61.7 333.1,61.8 333.5,60.9 333.9,61.5 334.3,61.5 334.6,60.2 335.0,60.6 335.4,59.8 335.8,61.9 336.2,62.0 336.6,62.3 336.9,61.4 337.3,61.7 337.7,61.2 338.1,61.2 338.5,61.3 338.9,61.2 339.2,61.5 339.6,60.7 340.0,61.0 340.4,58.9 340.8,58.9 341.2,60.7 341.5,61.8 341.9,61.5 342.3,61.4 342.7,62.4 343.1,61.7 343.5,61.6 343.9,61.2 344.2,61.0 344.6,61.2 345.0,61.9 345.4,62.5 345.8,62.5 346.2,62.5 346.5,62.5 346.9,61.7 347.3,62.2 347.7,59.2 348.1,59.5 348.5,59.4 348.8,59.2 349.2,59.2 349.6,58.8 350.0,57.0 350.4,56.5 350.8,56.7 351.1,56.6 351.5,56.8 351.9,57.2 352.3,58.2 352.7,58.3 353.1,58.0 353.4,58.9 353.8,59.3 354.2,59.3 354.6,59.2 355.0,61.3 355.4,61.0 355.7,60.9 356.1,61.3 356.5,61.8 356.9,63.2 357.3,63.8 357.7,62.7 358.0,62.8 358.4,65.2 358.8,63.6 359.2,63.8 359.6,63.8 360.0,62.6 360.3,62.3 360.7,62.0 361.1,62.0 361.5,62.0 361.9,62.0 362.3,62.0 362.6,61.9 363.0,62.4 363.4,62.4 363.8,62.5 364.2,62.8 364.6,62.4 364.9,62.4 365.3,62.3 365.7,62.3 366.1,62.4 366.5,62.6 366.9,63.1 367.2,63.2 367.6,63.2 368.0,63.8 368.4,66.6 368.8,65.9 369.2,65.6 369.5,66.5 369.9,66.6 370.3,66.6 370.7,66.6 371.1,66.4 371.5,68.4 371.8,68.5 372.2,68.3 372.6,68.5 373.0,68.5 373.4,68.6 373.8,68.6 374.1,68.6 374.5,67.0 374.9,67.0 375.3,67.0 375.7,67.0 376.1,66.8 376.4,67.3 376.8,67.4 377.2,67.8 377.6,67.9 378.0,68.2 378.4,68.2 378.7,67.9 379.1,69.2 379.5,69.3 379.9,68.8 380.3,68.7 380.7,68.0 381.0,68.0 381.4,68.8 381.8,68.0 382.2,68.1 382.6,67.9 383.0,67.8 383.3,67.8 383.7,68.7 384.1,67.9 384.5,68.4 384.9,68.4 385.3,68.0 385.7,68.6 386.0,70.7 386.4,70.7 386.8,68.6 387.2,68.2 387.6,67.3 388.0,67.5 388.3,67.7 388.7,67.7 389.1,67.7 389.5,67.7 389.9,68.5 390.3,67.8 390.6,67.8 391.0,67.7 391.4,67.7 391.8,68.3 392.2,67.5 392.6,66.9 392.9,69.2 393.3,69.3 393.7,68.3 394.1,68.3 394.5,68.3 394.9,68.3 395.2,68.3 395.6,68.4 396.0,68.4 396.4,68.4 396.8,68.4 397.2,68.4 397.5,68.0 397.9,68.0 398.3,69.4 398.7,68.2 399.1,68.0 399.5,68.3 399.8,67.7 400.2,69.0 400.6,68.2 401.0,68.5 401.4,68.6 401.8,68.3 402.1,68.3 402.5,68.3 402.9,68.6 403.3,68.6 403.7,68.2 404.1,68.3 404.4,68.0 404.8,69.3 405.2,69.2 405.6,68.0 406.0,68.3 406.4,68.4 406.7,67.8 407.1,67.9 407.5,67.9 407.9,67.9 408.3,67.6 408.7,69.5 409.0,69.5 409.4,69.5 409.8,69.5 410.2,69.6 410.6,69.6 411.0,69.5 411.3,69.4 411.7,68.2 412.1,68.2 412.5,68.1 412.9,68.1 413.3,68.1 413.6,68.4 414.0,68.4 414.4,68.4 414.8,68.5 415.2,68.5 415.6,68.4 415.9,68.5 416.3,68.4 416.7,68.3 417.1,68.4 417.5,68.4 417.9,68.5 418.2,68.5 418.6,68.5 419.0,68.7 419.4,66.4 419.8,68.8 420.2,68.9 420.5,69.2 420.9,68.9 421.3,66.6 421.7,66.7 422.1,65.6 422.5,65.5 422.8,65.5 423.2,65.5 423.6,66.9 424.0,66.9 424.4,65.5 424.8,65.3 425.1,65.3 425.5,65.8 425.9,66.0 426.3,66.1 426.7,66.1 427.1,66.1 427.4,66.1 427.8,66.4 428.2,67.2 428.6,67.3 429.0,67.0 429.4,67.0 429.8,68.2 430.1,67.4 430.5,67.2 430.9,67.2 431.3,67.2 431.7,67.1 432.1,67.1 432.4,67.1 432.8,67.1 433.2,67.1 433.6,67.1 434.0,67.1 434.4,67.3 434.7,67.6 435.1,67.6 435.5,67.5 435.9,67.5 436.3,67.5 436.7,67.5 437.0,67.5 437.4,67.5 437.8,67.6 438.2,67.4 438.6,67.4 439.0,67.4 439.3,67.7 439.7,67.7 440.1,67.3 440.5,67.5 440.9,67.5 441.3,67.3 441.6,66.3 442.0,66.4 442.4,67.8 442.8,67.7 443.2,66.3 443.6,66.3 443.9,66.3 444.3,66.3 444.7,66.5 445.1,66.5 445.5,66.7 445.9,66.4 446.2,66.4 446.6,66.4 447.0,66.4 447.4,66.4 447.8,66.4 448.2,66.8 448.5,66.9 448.9,67.0 449.3,67.0 449.7,67.4 450.1,67.4 450.5,67.4 450.8,66.5 451.2,66.4 451.6,65.6 452.0,65.6 452.4,66.5 452.8,67.1 453.1,67.1 453.5,67.1 453.9,67.1 454.3,67.3 454.7,67.0 455.1,67.0 455.4,66.3 455.8,65.6 456.2,66.0 456.6,66.2 457.0,66.3 457.4,66.3 457.7,66.3 458.1,66.3 458.5,66.5 458.9,66.5 459.3,66.5 459.7,66.5 460.0,66.1 460.4,65.3 460.8,65.3 461.2,65.3 461.6,65.5 462.0,65.6 462.3,65.6 462.7,65.3 463.1,65.3 463.5,65.7 463.9,66.4 464.3,66.3 464.6,66.3 465.0,66.4 465.4,66.4 465.8,66.4 466.2,66.6 466.6,67.0 466.9,66.9 467.3,66.9 467.7,67.4 468.1,67.1 468.5,67.2 468.9,66.5 469.2,66.5 469.6,66.5 470.0,66.5 470.4,66.5 470.8,67.3 471.2,67.9 471.6,67.5 471.9,67.2 472.3,67.2 472.7,67.2 473.1,67.2 473.5,70.3 473.9,70.3 474.2,70.3 474.6,69.5 475.0,69.3 475.4,69.2 475.8,69.2 476.2,69.6 476.5,68.7 476.9,68.7 477.3,68.7 477.7,68.7 478.1,68.9 478.5,68.9 478.8,69.7 479.2,69.7 479.6,69.7 480.0,69.7 480.4,69.7 480.8,70.2 481.1,69.7 481.5,69.7 481.9,69.7 482.3,68.9 482.7,68.9 483.1,71.0 483.4,71.0 483.8,71.6 484.2,71.0 484.6,71.6 485.0,71.6 485.4,71.0 485.7,71.0 486.1,71.0 486.5,71.0 486.9,71.0 487.3,71.1 487.7,71.6 488.0,71.6 488.4,71.6 488.8,71.6 489.2,72.2 489.6,72.2 490.0,72.2 490.3,72.3 490.7,72.3 491.1,72.3 491.5,72.3 491.9,72.3 492.3,72.0 492.6,72.3 493.0,72.3 493.4,72.3 493.8,72.3 494.2,72.5 494.6,72.5 494.9,72.5 495.3,71.8 495.7,72.1 496.1,72.5 496.5,72.5 496.9,72.6 497.2,72.7 497.6,72.8 498.0,72.8 498.4,72.8 498.8,72.9 499.2,85.0 499.5,72.4 499.9,72.4 500.3,72.4 500.7,72.4 501.1,71.1 501.5,85.0 501.8,85.0 502.2,72.4 502.6,72.4 503.0,85.0 503.4,85.0 503.8,71.1 504.1,71.1 504.5,71.1 504.9,70.1 505.3,70.1 505.7,70.1 506.1,70.1 506.4,70.1 506.8,70.2 507.2,70.2 507.6,70.4 508.0,70.8 508.4,70.4 508.7,70.4 509.1,70.4 509.5,70.4 509.9,70.4 510.3,71.1 510.7,71.1 511.0,71.0 511.4,70.8 511.8,70.8 512.2,71.0 512.6,71.0 513.0,71.0 513.4,70.8 513.7,70.8 514.1,70.8 514.5,70.8 514.9,70.8 515.3,70.8 515.7,70.9 516.0,70.9 516.4,71.0 516.8,71.0 517.2,71.0 517.6,71.0 518.0,71.0 518.3,71.0 518.7,71.5 519.1,85.0 519.5,85.0 519.9,85.0 520.3,85.0 520.6,85.0 521.0,85.0 521.4,85.0 521.8,85.0 522.2,85.0 522.6,85.0 522.9,85.0 523.3,85.0 523.7,85.0 524.1,85.0 524.5,70.9 524.9,70.9 525.2,71.3 525.6,71.3 526.0,71.3 526.4,71.4 526.8,71.4 527.2,71.5 527.5,71.5 527.9,71.5 528.3,71.5 528.7,71.5 529.1,71.6 529.5,71.6 529.8,71.5 530.2,68.6 530.6,68.6 531.0,68.6 531.4,68.6 531.8,68.6 532.1,68.6 532.5,68.6 532.9,70.7 533.3,70.3 533.7,70.4 534.1,70.5 534.4,71.0 534.8,71.3 535.2,71.3 535.6,85.0 536.0,85.0 536.4,85.0 536.7,85.0 537.1,85.0 537.5,85.0 537.9,85.0 538.3,85.0 538.7,85.0 539.0,85.0 539.4,85.0 539.8,85.0 540.2,85.0 540.6,85.0 541.0,85.0 541.3,85.0 541.7,85.0 542.1,85.0 542.5,85.0 542.9,85.0 543.3,85.0 543.6,85.0 544.0,41.8 544.4,41.8 544.8,41.8 545.2,41.8 545.6,42.2 545.9,42.0 546.3,42.3 546.7,41.1 547.1,41.1 547.5,41.1 547.9,41.1 548.2,41.1 548.6,34.4 549.0,34.4 549.4,34.4 549.8,34.4 550.2,34.4 550.5,34.4 550.9,34.4 551.3,33.7 551.7,33.7 552.1,27.0 552.5,27.0 552.8,27.0 553.2,27.0 553.6,27.0 554.0,27.0" fill="none" stroke="url(#lineGrad)" stroke-width="2.6" stroke-linejoin="round" stroke-linecap="round"/>
<circle cx="6.8" cy="97.0" r="4" fill="#10b981" stroke="#0f172a" stroke-width="1.4"/>
<text x="14.8" y="90.0" fill="#6ee7b7" font-size="11" font-weight="600" text-anchor="start">$1,612 · 2022-10-13</text>
<line x1="6" y1="104" x2="554" y2="104" stroke="#334155" stroke-width="1"/>
<line x1="6.0" y1="104" x2="6.0" y2="109" stroke="#475569" stroke-width="1"/>
<text x="6.0" y="132" fill="#8ea0b8" font-size="10.5" font-weight="400" text-anchor="middle">22-10-11</text>
<line x1="97.3" y1="104" x2="97.3" y2="109" stroke="#475569" stroke-width="1"/>
<text x="97.3" y="132" fill="#8ea0b8" font-size="10.5" font-weight="400" text-anchor="middle">23-06-06</text>
<line x1="188.5" y1="104" x2="188.5" y2="109" stroke="#475569" stroke-width="1"/>
<text x="188.5" y="132" fill="#8ea0b8" font-size="10.5" font-weight="400" text-anchor="middle">24-01-30</text>
<line x1="279.8" y1="104" x2="279.8" y2="109" stroke="#475569" stroke-width="1"/>
<text x="279.8" y="132" fill="#8ea0b8" font-size="10.5" font-weight="400" text-anchor="middle">24-09-24</text>
<line x1="371.5" y1="104" x2="371.5" y2="109" stroke="#475569" stroke-width="1"/>
<text x="371.5" y="132" fill="#8ea0b8" font-size="10.5" font-weight="400" text-anchor="middle">25-05-21</text>
<line x1="462.7" y1="104" x2="462.7" y2="109" stroke="#475569" stroke-width="1"/>
<text x="462.7" y="132" fill="#8ea0b8" font-size="10.5" font-weight="400" text-anchor="middle">26-01-14</text>
<line x1="554.0" y1="104" x2="554.0" y2="109" stroke="#475569" stroke-width="1"/>
<text x="554.0" y="132" fill="#f8fafc" font-size="10.5" font-weight="700" text-anchor="middle">26-09-09</text>
<circle cx="554.0" cy="27.0" r="4.5" fill="#ef4444" stroke="#0f172a" stroke-width="1.4"/>
<text x="554.0" y="19" fill="#fca5a5" font-size="11" font-weight="700" text-anchor="end">现价 $3,975</text>
</svg>